<svg xmlns="http://www.w3.org/2000/svg" xmlns:xlink="http://www.w3.org/1999/xlink" width="48" zoomAndPan="magnify" viewBox="0 0 36 36.000001" height="48" preserveAspectRatio="xMidYMid meet" version="1.0"><defs><clipPath id="d3bc97d10d"><path d="M 0.488281 2.1875 L 35.511719 2.1875 L 35.511719 32.835938 L 0.488281 32.835938 Z M 0.488281 2.1875 " clip-rule="nonzero"/></clipPath><clipPath id="cf7c35424e"><path d="M 1.875 7.082031 C -0.964844 11.761719 1.035156 16.316406 3.550781 18.734375 L 18.253906 32.835938 L 32.644531 18.785156 C 34.980469 16.183594 35.878906 13.425781 35.378906 10.355469 C 34.691406 6.105469 31.191406 2.808594 26.867188 2.339844 C 24.214844 2.054688 21.652344 2.804688 19.652344 4.464844 C 19.113281 4.914062 18.632812 5.414062 18.214844 5.957031 C 17.714844 5.335938 17.132812 4.773438 16.472656 4.269531 C 14.175781 2.523438 11.246094 1.828125 8.433594 2.367188 C 5.773438 2.882812 3.382812 4.601562 1.875 7.082031 Z M 1.875 7.082031 " clip-rule="nonzero"/></clipPath></defs><g clip-path="url(#d3bc97d10d)"><g clip-path="url(#cf7c35424e)"><path stroke-linecap="butt" transform="matrix(0.72973, 0, 0, 0.72973, 0.486486, 2.189191)" fill="none" stroke-linejoin="miter" d="M 1.902778 6.705003 C -1.988859 13.117908 0.751881 19.359517 4.199219 22.67303 L 24.347947 41.997394 L 44.068433 22.742619 C 47.269533 19.177515 48.500725 15.39829 47.81554 11.190825 C 46.87341 5.366751 42.077114 0.848811 36.151332 0.20645 C 32.516639 -0.18432 29.005065 0.843458 26.264324 3.118487 C 25.525609 3.734083 24.867189 4.419268 24.294417 5.163337 C 23.609231 4.312208 22.811633 3.541375 21.906974 2.850837 C 18.759405 0.458041 14.744648 -0.494794 10.890481 0.243921 C 7.245082 0.950518 3.96904 3.305842 1.902778 6.705003 Z M 1.902778 6.705003 " stroke="#424242" stroke-width="8" stroke-opacity="1" stroke-miterlimit="4"/></g></g></svg>