<svg xmlns="http://www.w3.org/2000/svg" xmlns:xlink="http://www.w3.org/1999/xlink" width="500" zoomAndPan="magnify" viewBox="0 0 375 374.999991" height="500" preserveAspectRatio="xMidYMid meet" version="1.0"><defs><clipPath id="21466292e0"><path d="M 1 63.984375 L 374 63.984375 L 374 310.734375 L 1 310.734375 Z M 1 63.984375 " clip-rule="nonzero"/></clipPath></defs><g clip-path="url(#21466292e0)"><path fill="#000000" d="M 187.339844 310.734375 C 132.21875 310.734375 77.101562 310.722656 21.980469 310.695312 C 19.011719 310.71875 16.082031 310.40625 13.1875 309.765625 C 11.035156 309.214844 9.0625 308.285156 7.265625 306.980469 C 1.148438 302.699219 0.0273438 296.46875 4.464844 290.488281 C 11.816406 280.566406 19.367188 270.816406 26.882812 261.050781 C 27.53125 260.261719 28.019531 259.386719 28.355469 258.421875 C 28.6875 257.457031 28.839844 256.464844 28.816406 255.445312 C 28.742188 198.875 28.722656 142.300781 28.753906 85.726562 C 28.753906 75.4375 34.625 67.351562 44.027344 64.945312 C 46.925781 64.203125 50.03125 64.074219 53.042969 64.070312 C 95.953125 64.011719 138.859375 63.984375 181.769531 63.984375 C 228.75 63.984375 275.730469 63.992188 322.710938 64.011719 C 332.800781 64.011719 340.808594 69.015625 343.847656 77.578125 C 344.800781 80.324219 345.277344 83.148438 345.28125 86.054688 C 345.347656 142.285156 345.347656 198.515625 345.28125 254.746094 C 345.28125 256.976562 345.769531 258.746094 347.199219 260.53125 C 354.621094 269.886719 361.886719 279.320312 369.226562 288.726562 C 369.566406 289.140625 369.902344 289.59375 370.226562 290.035156 C 374.957031 296.425781 373.695312 303.265625 366.992188 307.554688 C 363.265625 309.925781 359.125 310.75 354.769531 310.75 C 325.933594 310.730469 297.097656 310.730469 268.257812 310.75 Z M 336.6875 254.785156 L 336.6875 252.71875 C 336.6875 197.253906 336.6875 141.792969 336.6875 86.328125 C 336.695312 77.535156 331.78125 72.667969 322.976562 72.667969 C 253.164062 72.683594 183.355469 72.699219 113.558594 72.714844 C 92.523438 72.714844 71.488281 72.691406 50.449219 72.640625 C 44.957031 72.640625 40.679688 74.746094 38.527344 79.859375 C 37.605469 82.054688 37.4375 84.691406 37.4375 87.136719 C 37.390625 142.328125 37.390625 197.519531 37.4375 252.707031 C 37.4375 253.371094 37.503906 254.042969 37.542969 254.800781 Z M 306.421875 282.171875 C 307.394531 283.347656 308.109375 284.007812 308.582031 284.816406 C 310.183594 287.570312 312.492188 288.21875 315.617188 288.09375 C 322.4375 287.820312 329.277344 287.976562 336.097656 287.976562 C 339.796875 287.976562 341.757812 289.484375 341.738281 292.25 C 341.738281 294.730469 339.722656 296.234375 336.292969 296.316406 C 335.050781 296.347656 333.808594 296.34375 332.570312 296.34375 L 43.699219 296.34375 C 41.835938 296.34375 39.972656 296.414062 38.113281 296.261719 C 35.300781 296.03125 33.5625 293.671875 34.144531 291.089844 C 34.589844 289.144531 36.414062 287.980469 39.15625 287.976562 C 49.226562 287.976562 59.296875 287.976562 69.375 287.976562 C 70.054688 287.976562 71.03125 288.128906 71.367188 287.761719 C 72.941406 286.109375 74.34375 284.292969 76.039062 282.265625 C 75.125 282.214844 74.722656 282.175781 74.316406 282.175781 C 65.625 282.175781 56.929688 282.175781 48.238281 282.144531 C 45.457031 282.144531 43.628906 280.347656 43.652344 277.886719 C 43.675781 275.421875 45.375 273.890625 48.15625 273.800781 C 50.085938 273.738281 52.058594 273.519531 53.949219 273.828125 C 58.984375 274.65625 62.644531 273.003906 65.390625 268.6875 C 66.527344 266.898438 68.203125 265.449219 69.902344 263.542969 C 59.015625 263.542969 48.671875 263.582031 38.332031 263.496094 C 37.613281 263.445312 36.933594 263.578125 36.285156 263.890625 C 35.636719 264.207031 35.109375 264.660156 34.703125 265.253906 C 27.046875 275.269531 19.363281 285.265625 11.65625 295.242188 C 10.148438 297.203125 10.316406 298.648438 12.320312 300.128906 C 13.1875 300.769531 14.21875 301.414062 15.25 301.5625 C 17.960938 302.003906 20.691406 302.246094 23.441406 302.292969 C 114.488281 302.292969 205.535156 302.277344 296.585938 302.25 C 315.828125 302.25 335.082031 302.367188 354.320312 302.25 C 357.078125 302.167969 359.710938 301.554688 362.21875 300.410156 C 364.703125 299.316406 364.890625 297.242188 363.269531 295.171875 C 355.347656 285.09375 347.425781 275.007812 339.503906 264.921875 C 339.167969 264.441406 338.738281 264.078125 338.210938 263.824219 C 337.683594 263.570312 337.128906 263.464844 336.546875 263.503906 C 329.375 263.578125 322.199219 263.542969 315.023438 263.550781 C 314.511719 263.550781 314.003906 263.601562 313.148438 263.648438 C 315.105469 265.882812 316.914062 267.765625 318.527344 269.816406 C 320.648438 272.53125 322.921875 274.722656 326.761719 273.808594 C 326.96875 273.789062 327.175781 273.804688 327.378906 273.855469 C 329.707031 274.160156 331.28125 275.789062 331.296875 277.914062 C 331.316406 280.039062 329.640625 281.890625 327.261719 282.09375 C 325.960938 282.207031 324.644531 282.15625 323.335938 282.160156 Z M 132.570312 287.886719 L 224.113281 287.886719 C 223.191406 286.335938 222.296875 285.035156 221.628906 283.632812 C 221.0625 282.460938 220.300781 282.132812 219.035156 282.148438 C 214.007812 282.21875 208.980469 282.179688 203.945312 282.179688 C 181.964844 282.179688 159.984375 282.203125 138 282.242188 C 137.195312 282.242188 136.074219 282.433594 135.652344 282.964844 C 134.511719 284.402344 133.675781 286.070312 132.570312 287.886719 Z M 136.371094 263.878906 C 136.09375 263.714844 135.992188 263.601562 135.882812 263.601562 C 126.582031 263.582031 117.28125 263.574219 107.976562 263.574219 C 107.535156 263.574219 106.898438 263.667969 106.667969 263.960938 C 104.164062 267.105469 101.703125 270.296875 99.21875 273.542969 C 99.65625 273.742188 99.773438 273.839844 99.886719 273.839844 C 109.738281 273.839844 119.59375 273.824219 129.445312 273.789062 C 129.925781 273.789062 130.636719 273.570312 130.851562 273.21875 C 132.746094 270.132812 134.550781 266.992188 136.375 263.878906 Z M 183.339844 263.566406 C 180.027344 263.566406 176.914062 263.769531 173.820312 263.5 C 171.269531 263.277344 169.917969 264.164062 168.992188 266.476562 C 168.019531 268.921875 166.707031 271.222656 165.484375 273.71875 L 183.324219 273.71875 Z M 259.695312 273.828125 C 257.59375 270.347656 255.707031 267.183594 253.765625 264.054688 C 253.484375 263.746094 253.132812 263.59375 252.714844 263.597656 C 248.339844 263.5625 243.960938 263.574219 239.246094 263.574219 C 241.234375 267 243.039062 270.140625 244.910156 273.238281 C 245.230469 273.609375 245.636719 273.796875 246.125 273.804688 C 250.507812 273.839844 254.890625 273.828125 259.699219 273.828125 Z M 72.703125 273.796875 C 75.945312 273.796875 78.65625 273.480469 81.269531 273.863281 C 86.003906 274.558594 89.246094 272.929688 91.523438 268.765625 C 92.507812 266.964844 94.03125 265.457031 95.511719 263.566406 C 90.925781 263.566406 86.820312 263.542969 82.679688 263.597656 C 82.066406 263.613281 81.535156 263.839844 81.09375 264.265625 C 78.367188 267.273438 75.722656 270.339844 72.707031 273.796875 Z M 192.652344 273.710938 L 209.5625 273.710938 C 207.730469 270.351562 206.035156 267.230469 204.304688 264.125 C 204.125 263.832031 203.863281 263.65625 203.523438 263.605469 C 199.902344 263.566406 196.28125 263.578125 192.640625 263.578125 Z M 234.460938 273.796875 C 232.480469 270.34375 230.691406 267.203125 228.863281 264.074219 C 228.664062 263.789062 228.386719 263.628906 228.035156 263.601562 C 223.667969 263.566406 219.296875 263.578125 214.59375 263.578125 C 216.472656 266.953125 218.128906 270.015625 219.894531 273.027344 C 220.285156 273.5 220.785156 273.746094 221.402344 273.761719 C 225.597656 273.820312 229.789062 273.796875 234.457031 273.796875 Z M 288.355469 263.554688 C 290.914062 267.039062 293.132812 270.089844 295.394531 273.105469 C 295.691406 273.496094 296.082031 273.71875 296.570312 273.785156 C 300.933594 273.828125 305.300781 273.8125 310.230469 273.8125 C 307.082031 270.238281 304.300781 267.058594 301.488281 263.890625 C 301.226562 263.660156 300.921875 263.550781 300.578125 263.558594 C 296.660156 263.546875 292.761719 263.554688 288.351562 263.554688 Z M 284.679688 273.804688 C 282.15625 270.328125 279.890625 267.1875 277.578125 264.0625 C 277.300781 263.757812 276.953125 263.601562 276.539062 263.59375 C 272.585938 263.558594 268.628906 263.59375 264.273438 263.59375 C 266.410156 267.035156 268.335938 270.175781 270.308594 273.273438 C 270.570312 273.605469 270.914062 273.777344 271.332031 273.800781 C 275.625 273.816406 279.929688 273.804688 284.675781 273.804688 Z M 141.253906 273.804688 C 144.976562 273.804688 148.25 273.574219 151.464844 273.875 C 154.242188 274.140625 155.746094 273.25 156.738281 270.664062 C 157.648438 268.28125 159.023438 266.082031 160.304688 263.582031 C 155.984375 263.582031 152.054688 263.558594 148.132812 263.613281 C 147.578125 263.632812 147.128906 263.855469 146.78125 264.28125 C 144.945312 267.3125 143.191406 270.410156 141.265625 273.789062 Z M 274.671875 287.976562 C 273.6875 286.457031 272.804688 285.25 272.09375 283.949219 C 271.382812 282.652344 270.40625 282.015625 268.78125 282.148438 C 266.738281 282.316406 264.644531 282.199219 262.601562 282.203125 L 256.101562 282.203125 C 257.339844 284.125 258.277344 285.699219 259.3125 287.226562 C 259.578125 287.625 259.945312 287.867188 260.417969 287.949219 C 265.0625 288 269.703125 287.976562 274.671875 287.976562 Z M 82.945312 287.976562 C 87.914062 287.976562 92.523438 287.976562 97.113281 287.976562 C 97.460938 287.949219 97.746094 287.800781 97.96875 287.535156 C 99.183594 285.90625 100.359375 284.226562 101.78125 282.265625 C 96.964844 282.265625 92.582031 282.265625 88.203125 282.289062 C 87.710938 282.316406 87.296875 282.515625 86.960938 282.878906 C 85.671875 284.421875 84.445312 286.050781 82.945312 287.96875 Z M 231.636719 282.1875 C 232.816406 284.199219 233.707031 285.804688 234.707031 287.367188 C 234.941406 287.707031 235.257812 287.898438 235.667969 287.945312 C 239.835938 287.984375 244.007812 287.972656 248.5 287.972656 C 247.34375 286.105469 246.386719 284.460938 245.3125 282.894531 C 244.960938 282.472656 244.511719 282.25 243.964844 282.21875 C 239.972656 282.164062 235.996094 282.183594 231.636719 282.183594 Z M 282.210938 282.1875 C 283.539062 284.183594 284.578125 285.78125 285.671875 287.339844 C 285.898438 287.679688 286.214844 287.878906 286.617188 287.945312 C 290.703125 287.984375 294.792969 287.972656 299.25 287.972656 C 297.820312 286.035156 296.640625 284.378906 295.382812 282.789062 C 295.058594 282.433594 294.652344 282.242188 294.171875 282.214844 C 290.339844 282.167969 286.503906 282.183594 282.210938 282.183594 Z M 108.980469 287.976562 C 113.242188 287.976562 117.023438 287.976562 120.808594 287.976562 C 121.175781 287.976562 121.71875 287.863281 121.886719 287.605469 C 123.015625 285.925781 124.0625 284.195312 125.277344 282.230469 C 121.246094 282.230469 117.613281 282.207031 113.976562 282.265625 C 113.425781 282.3125 112.96875 282.546875 112.609375 282.972656 C 111.4375 284.488281 110.359375 286.066406 108.976562 287.988281 Z M 186.796875 245.316406 C 145.0625 245.316406 103.335938 245.316406 61.609375 245.316406 C 54.738281 245.316406 49.390625 241.097656 48.019531 234.632812 C 47.835938 233.675781 47.753906 232.710938 47.773438 231.738281 C 47.773438 187.027344 47.785156 142.316406 47.804688 97.601562 C 47.804688 89.019531 53.734375 83.230469 62.53125 83.21875 C 102.542969 83.160156 142.550781 83.136719 182.546875 83.152344 C 224.894531 83.152344 267.242188 83.160156 309.597656 83.175781 C 311.714844 83.175781 313.917969 83.230469 315.9375 83.785156 C 316.648438 83.976562 317.335938 84.226562 318.003906 84.53125 C 318.675781 84.835938 319.316406 85.191406 319.925781 85.597656 C 320.539062 86.003906 321.113281 86.457031 321.652344 86.957031 C 322.191406 87.457031 322.683594 88 323.136719 88.578125 C 323.585938 89.15625 323.988281 89.769531 324.339844 90.414062 C 324.691406 91.058594 324.992188 91.726562 325.234375 92.421875 C 325.480469 93.113281 325.667969 93.820312 325.796875 94.542969 C 325.925781 95.265625 325.996094 95.996094 326.007812 96.730469 C 326.160156 105 326.101562 113.269531 326.105469 121.539062 C 326.105469 157.921875 326.105469 194.304688 326.105469 230.691406 C 326.105469 237.71875 322.382812 243.113281 316.242188 244.773438 C 314.429688 245.203125 312.589844 245.390625 310.726562 245.34375 C 269.40625 245.375 228.09375 245.382812 186.78125 245.367188 Z M 186.796875 236.835938 L 310.558594 236.835938 C 311.25 236.835938 311.941406 236.835938 312.628906 236.765625 C 315.425781 236.5 317.183594 234.699219 317.304688 231.929688 C 317.351562 230.964844 317.335938 230.003906 317.335938 229.035156 C 317.335938 188.242188 317.335938 147.445312 317.335938 106.652344 C 317.335938 103.550781 317.398438 100.449219 317.308594 97.355469 C 317.214844 94.257812 315.039062 92.097656 311.933594 91.90625 C 311.105469 91.851562 310.277344 91.867188 309.449219 91.867188 L 64.84375 91.867188 C 63.601562 91.835938 62.359375 91.878906 61.121094 91.992188 C 60.5 92.0625 59.910156 92.238281 59.351562 92.515625 C 58.792969 92.796875 58.296875 93.164062 57.871094 93.617188 C 57.441406 94.070312 57.101562 94.585938 56.855469 95.160156 C 56.609375 95.730469 56.46875 96.332031 56.433594 96.953125 C 56.34375 98.460938 56.359375 99.984375 56.359375 101.5 C 56.359375 131.335938 56.359375 161.171875 56.359375 191.007812 C 56.359375 204.441406 56.378906 217.878906 56.417969 231.3125 C 56.417969 233.953125 57.730469 235.941406 59.9375 236.558594 C 61.015625 236.800781 62.109375 236.890625 63.214844 236.835938 C 104.414062 236.84375 145.609375 236.84375 186.796875 236.835938 Z M 186.796875 236.835938 " fill-opacity="1" fill-rule="nonzero"/></g></svg>