<svg xmlns="http://www.w3.org/2000/svg" xmlns:xlink="http://www.w3.org/1999/xlink" width="1200" zoomAndPan="magnify" viewBox="0 0 900 470.25" height="627" preserveAspectRatio="xMidYMid meet" version="1.0"><defs><clipPath id="c0b2a3ebd5"><path d="M 0.714844 0 L 899.28125 0 L 899.28125 469.5 L 0.714844 469.5 Z M 0.714844 0 " clip-rule="nonzero"/></clipPath><clipPath id="6d63ec73c5"><path d="M 263 29 L 648 29 L 648 441 L 263 441 Z M 263 29 " clip-rule="nonzero"/></clipPath><clipPath id="bd68453e81"><path d="M 232.171875 46.808594 L 627.621094 0.0351562 L 677.65625 423.089844 L 282.210938 469.863281 Z M 232.171875 46.808594 " clip-rule="nonzero"/></clipPath><clipPath id="3bd8d5f0cf"><path d="M 232.171875 46.808594 L 627.621094 0.0351562 L 677.65625 423.089844 L 282.210938 469.863281 Z M 232.171875 46.808594 " clip-rule="nonzero"/></clipPath></defs><g clip-path="url(#c0b2a3ebd5)"><path fill="#ffffff" d="M 0.714844 0 L 899.285156 0 L 899.285156 469.5 L 0.714844 469.5 Z M 0.714844 0 " fill-opacity="1" fill-rule="nonzero"/><path fill="#ffffff" d="M 0.714844 0 L 899.285156 0 L 899.285156 469.5 L 0.714844 469.5 Z M 0.714844 0 " fill-opacity="1" fill-rule="nonzero"/><rect x="-90" width="1080" fill="#f23a30" y="-47.025" height="564.3" fill-opacity="1"/></g><g clip-path="url(#6d63ec73c5)"><g clip-path="url(#bd68453e81)"><g clip-path="url(#3bd8d5f0cf)"><path fill="#ffffff" d="M 381.867188 42.753906 C 433.675781 23.011719 488.667969 25.640625 536.050781 46 C 584.347656 66.753906 624.726562 105.929688 645.742188 158.617188 C 646.203125 159.78125 646.648438 160.945312 647.09375 162.109375 L 644.105469 163.570312 C 643.636719 162.324219 643.15625 161.082031 642.664062 159.84375 C 621.988281 108.003906 582.257812 69.457031 534.742188 49.035156 C 487.472656 28.722656 432.496094 26.355469 380.898438 46.679688 C 381.25 45.378906 381.574219 44.070312 381.867188 42.753906 Z M 266.054688 306.539062 C 266.441406 307.554688 266.832031 308.570312 267.238281 309.585938 C 287.914062 361.421875 327.644531 399.96875 375.160156 420.390625 C 422.652344 440.800781 477.925781 443.097656 529.742188 422.457031 C 529.371094 423.765625 529.035156 425.082031 528.722656 426.410156 C 476.714844 446.4375 421.4375 443.875 373.851562 423.425781 C 325.554688 402.675781 285.175781 363.496094 264.164062 310.808594 C 263.792969 309.871094 263.425781 308.933594 263.066406 307.996094 Z M 266.054688 306.539062 " fill-opacity="1" fill-rule="evenodd"/></g></g></g><path fill="#ffffff" d="M 353.535156 245.414062 L 353.535156 199.226562 C 353.535156 197.566406 352.660156 196.714844 350.941406 196.714844 L 331.4375 196.714844 C 330.050781 196.714844 328.867188 196.242188 327.859375 195.277344 C 326.898438 194.269531 326.429688 193.015625 326.429688 191.511719 C 326.429688 190.144531 326.898438 188.980469 327.859375 188.015625 C 328.867188 187.003906 330.050781 186.488281 331.4375 186.488281 L 354.695312 186.488281 C 357.605469 186.488281 359.929688 187.476562 361.675781 189.449219 C 363.398438 191.378906 364.269531 193.820312 364.269531 196.804688 L 364.269531 277.070312 C 364.269531 279.941406 363.398438 282.363281 361.675781 284.335938 C 359.929688 286.355469 357.605469 287.386719 354.695312 287.386719 L 277.046875 287.386719 C 271.902344 287.386719 267.765625 285.792969 264.613281 282.632812 C 261.503906 279.472656 259.960938 275.34375 259.960938 270.253906 L 259.960938 255.726562 C 259.960938 252.746094 260.789062 250.300781 262.464844 248.371094 C 264.1875 246.398438 266.535156 245.414062 269.53125 245.414062 Z M 258.351562 186.488281 L 306.835938 186.488281 C 311.308594 186.488281 314.886719 187.789062 317.570312 190.347656 C 320.253906 192.925781 321.597656 196.332031 321.597656 200.570312 C 321.597656 203.800781 320.726562 206.824219 319.003906 209.628906 C 317.324219 212.453125 314.730469 214.71875 311.21875 216.445312 L 258.261719 243.351562 C 257.050781 244.023438 255.753906 244.113281 254.324219 243.621094 C 252.9375 243.082031 252 242.183594 251.460938 240.929688 C 250.789062 239.671875 250.699219 238.394531 251.191406 237.074219 C 251.730469 235.703125 252.578125 234.695312 253.789062 234.023438 L 290.914062 215.636719 C 287.871094 215.996094 284.828125 216.265625 281.789062 216.445312 C 278.792969 216.578125 276.152344 216.625 273.828125 216.625 L 257.007812 216.625 C 255.507812 216.625 254.28125 216.175781 253.339844 215.277344 C 252.445312 214.335938 252 213.125 252 211.691406 C 252 210.324219 252.445312 209.226562 253.339844 208.371094 C 254.28125 207.476562 255.507812 207.027344 257.007812 207.027344 L 307.820312 207.027344 C 309.65625 205.414062 310.59375 203.53125 310.59375 201.378906 C 310.59375 200.011719 310.078125 198.867188 309.074219 197.96875 C 308.042969 197.027344 306.589844 196.535156 304.691406 196.535156 L 258.351562 196.535156 C 256.964844 196.535156 255.800781 196.042969 254.859375 195.011719 C 253.898438 194 253.429688 192.835938 253.429688 191.511719 C 253.429688 190.03125 253.898438 188.820312 254.859375 187.925781 C 255.800781 186.984375 256.964844 186.488281 258.351562 186.488281 Z M 278.566406 277.160156 L 350.941406 277.160156 C 352.660156 277.160156 353.535156 276.332031 353.535156 274.652344 L 353.535156 255.636719 L 273.289062 255.636719 C 271.5 255.636719 270.605469 256.445312 270.605469 258.058594 L 270.605469 269.628906 C 270.605469 271.960938 271.34375 273.820312 272.84375 275.1875 C 274.316406 276.511719 276.242188 277.160156 278.566406 277.160156 Z M 278.566406 277.160156 " fill-opacity="1" fill-rule="nonzero"/><path fill="#ffffff" d="M 437.46875 191.511719 L 467.613281 191.511719 C 469.046875 191.511719 470.253906 192.027344 471.28125 193.035156 C 472.289062 194.066406 472.804688 195.277344 472.804688 196.714844 C 472.804688 197.96875 472.289062 199.113281 471.28125 200.121094 C 470.253906 201.152344 469.046875 201.648438 467.613281 201.648438 L 455.984375 201.648438 C 460.679688 205.773438 464.417969 211.109375 467.167969 217.609375 C 469.894531 224.066406 471.28125 231.398438 471.28125 239.582031 C 471.28125 248.867188 469.539062 257.117188 466.09375 264.335938 C 462.695312 271.511719 457.976562 277.160156 451.960938 281.289062 C 445.988281 285.34375 439.277344 287.386719 431.832031 287.386719 C 424.316406 287.386719 417.5625 285.34375 411.613281 281.289062 C 405.710938 277.160156 401.011719 271.511719 397.566406 264.335938 C 394.101562 257.117188 392.378906 248.867188 392.378906 239.582031 C 392.378906 231.398438 393.722656 224.066406 396.40625 217.609375 C 399.132812 211.109375 402.847656 205.773438 407.5 201.648438 L 395.152344 201.648438 C 393.832031 201.648438 392.671875 201.152344 391.664062 200.121094 C 390.636719 199.113281 390.144531 197.96875 390.144531 196.714844 C 390.144531 195.277344 390.636719 194.066406 391.664062 193.035156 C 392.671875 192.027344 393.832031 191.511719 395.152344 191.511719 L 426.554688 191.511719 L 426.554688 180.480469 C 426.554688 179.113281 427.089844 177.925781 428.164062 176.894531 C 429.28125 175.882812 430.535156 175.367188 431.921875 175.367188 C 433.398438 175.367188 434.695312 175.882812 435.765625 176.894531 C 436.886719 177.925781 437.46875 179.113281 437.46875 180.480469 Z M 403.023438 239.582031 C 403.023438 247.117188 404.300781 253.730469 406.871094 259.402344 C 409.488281 265.03125 412.976562 269.425781 417.339844 272.585938 C 421.675781 275.773438 426.507812 277.339844 431.832031 277.339844 C 437.199219 277.339844 442.03125 275.773438 446.324219 272.585938 C 450.617188 269.425781 454.039062 265.03125 456.609375 259.402344 C 459.226562 253.730469 460.546875 247.117188 460.546875 239.582031 C 460.546875 232.050781 459.226562 225.480469 456.609375 219.851562 C 454.039062 214.179688 450.617188 209.785156 446.324219 206.667969 C 442.03125 203.574219 437.199219 202.003906 431.832031 202.003906 C 426.507812 202.003906 421.675781 203.574219 417.339844 206.667969 C 412.976562 209.785156 409.488281 214.179688 406.871094 219.851562 C 404.300781 225.480469 403.023438 232.050781 403.023438 239.582031 Z M 504.5625 189.539062 L 504.5625 281.644531 C 504.5625 283.035156 504.023438 284.179688 502.949219 285.144531 C 501.921875 286.152344 500.714844 286.667969 499.28125 286.667969 C 497.898438 286.667969 496.644531 286.152344 495.527344 285.144531 C 494.453125 284.179688 493.914062 283.035156 493.914062 281.644531 L 493.914062 189.539062 C 493.914062 188.171875 494.40625 186.984375 495.4375 185.953125 C 496.511719 184.941406 497.761719 184.425781 499.195312 184.425781 C 500.667969 184.425781 501.921875 184.941406 502.949219 185.953125 C 504.023438 186.984375 504.5625 188.171875 504.5625 189.539062 Z M 504.5625 189.539062 " fill-opacity="1" fill-rule="nonzero"/><path fill="#ffffff" d="M 569.527344 232.230469 C 556.691406 232.230469 546.738281 230.167969 539.648438 226.042969 C 532.605469 221.871094 529.09375 216.242188 529.09375 209.179688 C 529.09375 204.292969 530.636719 200.167969 533.746094 196.804688 C 536.832031 193.394531 540.765625 190.839844 545.554688 189.089844 C 550.382812 187.363281 555.347656 186.488281 560.492188 186.488281 C 562.328125 186.488281 563.714844 186.984375 564.609375 187.925781 C 565.546875 188.820312 566.039062 190.078125 566.039062 191.691406 C 566.039062 192.722656 565.683594 193.710938 564.964844 194.652344 C 564.25 195.617188 563.199219 196.152344 561.835938 196.265625 C 555.082031 196.757812 549.757812 198.195312 545.820312 200.570312 C 541.929688 202.96875 540.007812 205.839844 540.007812 209.179688 C 540.007812 213.125 542.601562 216.308594 547.789062 218.6875 C 552.980469 221.085938 560.226562 222.273438 569.527344 222.273438 C 578.765625 222.273438 585.988281 221.085938 591.175781 218.6875 C 596.367188 216.308594 598.960938 213.125 598.960938 209.179688 C 598.960938 205.839844 596.992188 202.96875 593.054688 200.570312 C 589.164062 198.195312 583.863281 196.757812 577.132812 196.265625 C 575.746094 196.152344 574.71875 195.617188 574 194.652344 C 573.285156 193.710938 572.929688 192.722656 572.929688 191.691406 C 572.929688 190.078125 573.375 188.820312 574.269531 187.925781 C 575.210938 186.984375 576.640625 186.488281 578.5625 186.488281 L 633.9375 186.488281 C 636.914062 186.488281 639.238281 187.476562 640.917969 189.449219 C 642.640625 191.378906 643.511719 193.820312 643.511719 196.804688 L 643.511719 258.238281 C 643.511719 261.109375 642.640625 263.574219 640.917969 265.59375 C 639.238281 267.566406 636.914062 268.550781 633.9375 268.550781 L 549.757812 268.550781 C 548.015625 268.550781 547.164062 269.402344 547.164062 271.0625 L 547.164062 274.023438 C 547.164062 275.773438 547.566406 277.027344 548.417969 277.789062 C 549.242188 278.574219 550.675781 278.957031 552.710938 278.957031 L 640.113281 278.957031 C 641.542969 278.957031 642.726562 279.449219 643.691406 280.390625 C 644.695312 281.289062 645.210938 282.496094 645.210938 283.976562 C 645.210938 285.277344 644.695312 286.398438 643.691406 287.296875 C 642.726562 288.238281 641.542969 288.730469 640.113281 288.730469 L 551.816406 288.730469 C 547.097656 288.730469 543.339844 287.65625 540.542969 285.503906 C 537.792969 283.394531 536.429688 280.210938 536.429688 275.90625 L 536.429688 269.089844 C 536.429688 266.109375 537.257812 263.6875 538.933594 261.824219 C 540.65625 259.988281 543.003906 259.046875 546 259.046875 L 630.183594 259.046875 C 631.972656 259.046875 632.867188 258.214844 632.867188 256.535156 L 632.867188 249.179688 L 541.886719 249.179688 C 540.453125 249.179688 539.246094 248.730469 538.308594 247.835938 C 537.347656 246.894531 536.875 245.660156 536.875 244.15625 C 536.875 242.855469 537.347656 241.734375 538.308594 240.839844 C 539.246094 239.898438 540.453125 239.402344 541.886719 239.402344 L 632.867188 239.402344 L 632.867188 199.046875 C 632.867188 197.386719 631.972656 196.535156 630.183594 196.535156 L 603.703125 196.535156 C 605.535156 198.328125 607.035156 200.277344 608.175781 202.363281 C 609.359375 204.40625 609.964844 206.667969 609.964844 209.179688 C 609.964844 216.242188 606.40625 221.871094 599.320312 226.042969 C 592.207031 230.167969 582.277344 232.230469 569.527344 232.230469 Z M 569.527344 232.230469 " fill-opacity="1" fill-rule="nonzero"/></svg>