<svg xmlns="http://www.w3.org/2000/svg" xmlns:xlink="http://www.w3.org/1999/xlink" width="130" zoomAndPan="magnify" viewBox="0 0 97.5 30.000001" height="40" preserveAspectRatio="xMidYMid meet" version="1.0"><defs><g/></defs><g fill="#ffffff" fill-opacity="1"><g transform="translate(12.104333, 22.250092)"><g><path d="M 19.796875 -6.578125 L 19.796875 -14.625 C 19.796875 -14.914062 19.644531 -15.0625 19.34375 -15.0625 L 15.9375 -15.0625 C 15.695312 -15.0625 15.488281 -15.144531 15.3125 -15.3125 C 15.144531 -15.488281 15.0625 -15.707031 15.0625 -15.96875 C 15.0625 -16.207031 15.144531 -16.410156 15.3125 -16.578125 C 15.488281 -16.753906 15.695312 -16.84375 15.9375 -16.84375 L 20 -16.84375 C 20.507812 -16.84375 20.914062 -16.671875 21.21875 -16.328125 C 21.519531 -15.992188 21.671875 -15.566406 21.671875 -15.046875 L 21.671875 -1.0625 C 21.671875 -0.5625 21.519531 -0.140625 21.21875 0.203125 C 20.914062 0.554688 20.507812 0.734375 20 0.734375 L 6.4375 0.734375 C 5.539062 0.734375 4.816406 0.457031 4.265625 -0.09375 C 3.722656 -0.644531 3.453125 -1.363281 3.453125 -2.25 L 3.453125 -4.78125 C 3.453125 -5.300781 3.597656 -5.726562 3.890625 -6.0625 C 4.191406 -6.40625 4.601562 -6.578125 5.125 -6.578125 Z M 3.171875 -16.84375 L 11.640625 -16.84375 C 12.421875 -16.84375 13.046875 -16.617188 13.515625 -16.171875 C 13.984375 -15.722656 14.21875 -15.128906 14.21875 -14.390625 C 14.21875 -13.828125 14.066406 -13.300781 13.765625 -12.8125 C 13.472656 -12.320312 13.019531 -11.925781 12.40625 -11.625 L 3.15625 -6.9375 C 2.945312 -6.820312 2.71875 -6.804688 2.46875 -6.890625 C 2.226562 -6.984375 2.0625 -7.140625 1.96875 -7.359375 C 1.851562 -7.578125 1.835938 -7.800781 1.921875 -8.03125 C 2.015625 -8.269531 2.164062 -8.445312 2.375 -8.5625 L 8.859375 -11.765625 C 8.328125 -11.703125 7.796875 -11.65625 7.265625 -11.625 C 6.742188 -11.601562 6.28125 -11.59375 5.875 -11.59375 L 2.9375 -11.59375 C 2.675781 -11.59375 2.460938 -11.671875 2.296875 -11.828125 C 2.140625 -11.992188 2.0625 -12.203125 2.0625 -12.453125 C 2.0625 -12.691406 2.140625 -12.882812 2.296875 -13.03125 C 2.460938 -13.1875 2.675781 -13.265625 2.9375 -13.265625 L 11.8125 -13.265625 C 12.132812 -13.546875 12.296875 -13.875 12.296875 -14.25 C 12.296875 -14.488281 12.207031 -14.6875 12.03125 -14.84375 C 11.851562 -15.007812 11.597656 -15.09375 11.265625 -15.09375 L 3.171875 -15.09375 C 2.929688 -15.09375 2.726562 -15.179688 2.5625 -15.359375 C 2.394531 -15.535156 2.3125 -15.738281 2.3125 -15.96875 C 2.3125 -16.226562 2.394531 -16.4375 2.5625 -16.59375 C 2.726562 -16.757812 2.929688 -16.84375 3.171875 -16.84375 Z M 6.703125 -1.046875 L 19.34375 -1.046875 C 19.644531 -1.046875 19.796875 -1.191406 19.796875 -1.484375 L 19.796875 -4.796875 L 5.78125 -4.796875 C 5.46875 -4.796875 5.3125 -4.65625 5.3125 -4.375 L 5.3125 -2.359375 C 5.3125 -1.953125 5.441406 -1.628906 5.703125 -1.390625 C 5.960938 -1.160156 6.296875 -1.046875 6.703125 -1.046875 Z M 6.703125 -1.046875 "/></g></g></g><g fill="#ffffff" fill-opacity="1"><g transform="translate(36.373475, 22.250092)"><g><path d="M 10.1875 -15.96875 L 15.453125 -15.96875 C 15.703125 -15.96875 15.914062 -15.878906 16.09375 -15.703125 C 16.269531 -15.523438 16.359375 -15.3125 16.359375 -15.0625 C 16.359375 -14.84375 16.269531 -14.644531 16.09375 -14.46875 C 15.914062 -14.289062 15.703125 -14.203125 15.453125 -14.203125 L 13.421875 -14.203125 C 14.242188 -13.484375 14.894531 -12.554688 15.375 -11.421875 C 15.851562 -10.296875 16.09375 -9.019531 16.09375 -7.59375 C 16.09375 -5.976562 15.789062 -4.539062 15.1875 -3.28125 C 14.59375 -2.03125 13.769531 -1.046875 12.71875 -0.328125 C 11.675781 0.378906 10.503906 0.734375 9.203125 0.734375 C 7.890625 0.734375 6.710938 0.378906 5.671875 -0.328125 C 4.640625 -1.046875 3.820312 -2.03125 3.21875 -3.28125 C 2.613281 -4.539062 2.3125 -5.976562 2.3125 -7.59375 C 2.3125 -9.019531 2.546875 -10.296875 3.015625 -11.421875 C 3.492188 -12.554688 4.140625 -13.484375 4.953125 -14.203125 L 2.796875 -14.203125 C 2.566406 -14.203125 2.363281 -14.289062 2.1875 -14.46875 C 2.007812 -14.644531 1.921875 -14.84375 1.921875 -15.0625 C 1.921875 -15.3125 2.007812 -15.523438 2.1875 -15.703125 C 2.363281 -15.878906 2.566406 -15.96875 2.796875 -15.96875 L 8.28125 -15.96875 L 8.28125 -17.890625 C 8.28125 -18.128906 8.375 -18.335938 8.5625 -18.515625 C 8.757812 -18.691406 8.976562 -18.78125 9.21875 -18.78125 C 9.476562 -18.78125 9.703125 -18.691406 9.890625 -18.515625 C 10.085938 -18.335938 10.1875 -18.128906 10.1875 -17.890625 Z M 4.171875 -7.59375 C 4.171875 -6.28125 4.394531 -5.128906 4.84375 -4.140625 C 5.300781 -3.160156 5.910156 -2.394531 6.671875 -1.84375 C 7.429688 -1.289062 8.273438 -1.015625 9.203125 -1.015625 C 10.140625 -1.015625 10.984375 -1.289062 11.734375 -1.84375 C 12.484375 -2.394531 13.082031 -3.160156 13.53125 -4.140625 C 13.988281 -5.128906 14.21875 -6.28125 14.21875 -7.59375 C 14.21875 -8.90625 13.988281 -10.050781 13.53125 -11.03125 C 13.082031 -12.019531 12.484375 -12.785156 11.734375 -13.328125 C 10.984375 -13.867188 10.140625 -14.140625 9.203125 -14.140625 C 8.273438 -14.140625 7.429688 -13.867188 6.671875 -13.328125 C 5.910156 -12.785156 5.300781 -12.019531 4.84375 -11.03125 C 4.394531 -10.050781 4.171875 -8.90625 4.171875 -7.59375 Z M 21.90625 -16.3125 L 21.90625 -0.265625 C 21.90625 -0.0234375 21.8125 0.175781 21.625 0.34375 C 21.445312 0.519531 21.234375 0.609375 20.984375 0.609375 C 20.742188 0.609375 20.523438 0.519531 20.328125 0.34375 C 20.140625 0.175781 20.046875 -0.0234375 20.046875 -0.265625 L 20.046875 -16.3125 C 20.046875 -16.550781 20.132812 -16.757812 20.3125 -16.9375 C 20.5 -17.113281 20.71875 -17.203125 20.96875 -17.203125 C 21.226562 -17.203125 21.445312 -17.113281 21.625 -16.9375 C 21.8125 -16.757812 21.90625 -16.550781 21.90625 -16.3125 Z M 21.90625 -16.3125 "/></g></g></g><g fill="#ffffff" fill-opacity="1"><g transform="translate(60.642617, 22.250092)"><g><path d="M 8.984375 -8.875 C 6.742188 -8.875 5.003906 -9.234375 3.765625 -9.953125 C 2.535156 -10.679688 1.921875 -11.660156 1.921875 -12.890625 C 1.921875 -13.742188 2.191406 -14.460938 2.734375 -15.046875 C 3.273438 -15.640625 3.960938 -16.085938 4.796875 -16.390625 C 5.640625 -16.691406 6.507812 -16.84375 7.40625 -16.84375 C 7.726562 -16.84375 7.96875 -16.757812 8.125 -16.59375 C 8.289062 -16.4375 8.375 -16.21875 8.375 -15.9375 C 8.375 -15.757812 8.3125 -15.585938 8.1875 -15.421875 C 8.0625 -15.253906 7.878906 -15.160156 7.640625 -15.140625 C 6.460938 -15.054688 5.53125 -14.804688 4.84375 -14.390625 C 4.164062 -13.972656 3.828125 -13.472656 3.828125 -12.890625 C 3.828125 -12.203125 4.28125 -11.648438 5.1875 -11.234375 C 6.09375 -10.816406 7.359375 -10.609375 8.984375 -10.609375 C 10.597656 -10.609375 11.859375 -10.816406 12.765625 -11.234375 C 13.671875 -11.648438 14.125 -12.203125 14.125 -12.890625 C 14.125 -13.472656 13.78125 -13.972656 13.09375 -14.390625 C 12.414062 -14.804688 11.488281 -15.054688 10.3125 -15.140625 C 10.070312 -15.160156 9.890625 -15.253906 9.765625 -15.421875 C 9.640625 -15.585938 9.578125 -15.757812 9.578125 -15.9375 C 9.578125 -16.21875 9.65625 -16.4375 9.8125 -16.59375 C 9.976562 -16.757812 10.226562 -16.84375 10.5625 -16.84375 L 20.234375 -16.84375 C 20.753906 -16.84375 21.160156 -16.671875 21.453125 -16.328125 C 21.753906 -15.992188 21.90625 -15.566406 21.90625 -15.046875 L 21.90625 -4.34375 C 21.90625 -3.84375 21.753906 -3.414062 21.453125 -3.0625 C 21.160156 -2.71875 20.753906 -2.546875 20.234375 -2.546875 L 5.53125 -2.546875 C 5.226562 -2.546875 5.078125 -2.398438 5.078125 -2.109375 L 5.078125 -1.59375 C 5.078125 -1.289062 5.148438 -1.070312 5.296875 -0.9375 C 5.441406 -0.800781 5.691406 -0.734375 6.046875 -0.734375 L 21.3125 -0.734375 C 21.5625 -0.734375 21.769531 -0.648438 21.9375 -0.484375 C 22.113281 -0.328125 22.203125 -0.117188 22.203125 0.140625 C 22.203125 0.367188 22.113281 0.5625 21.9375 0.71875 C 21.769531 0.882812 21.5625 0.96875 21.3125 0.96875 L 5.890625 0.96875 C 5.066406 0.96875 4.410156 0.78125 3.921875 0.40625 C 3.441406 0.0390625 3.203125 -0.515625 3.203125 -1.265625 L 3.203125 -2.453125 C 3.203125 -2.972656 3.347656 -3.394531 3.640625 -3.71875 C 3.941406 -4.039062 4.351562 -4.203125 4.875 -4.203125 L 19.578125 -4.203125 C 19.890625 -4.203125 20.046875 -4.347656 20.046875 -4.640625 L 20.046875 -5.921875 L 4.15625 -5.921875 C 3.90625 -5.921875 3.695312 -6 3.53125 -6.15625 C 3.363281 -6.320312 3.28125 -6.535156 3.28125 -6.796875 C 3.28125 -7.023438 3.363281 -7.21875 3.53125 -7.375 C 3.695312 -7.539062 3.90625 -7.625 4.15625 -7.625 L 20.046875 -7.625 L 20.046875 -14.65625 C 20.046875 -14.945312 19.890625 -15.09375 19.578125 -15.09375 L 14.953125 -15.09375 C 15.273438 -14.78125 15.535156 -14.441406 15.734375 -14.078125 C 15.941406 -13.722656 16.046875 -13.328125 16.046875 -12.890625 C 16.046875 -11.660156 15.425781 -10.679688 14.1875 -9.953125 C 12.945312 -9.234375 11.210938 -8.875 8.984375 -8.875 Z M 8.984375 -8.875 "/></g></g></g></svg>