<svg xmlns="http://www.w3.org/2000/svg" xmlns:xlink="http://www.w3.org/1999/xlink" width="48" zoomAndPan="magnify" viewBox="0 0 36 36.000001" height="48" preserveAspectRatio="xMidYMid meet" version="1.0"><defs><clipPath id="8675f4d677"><path d="M 0.488281 0 L 25 0 L 25 35.027344 L 0.488281 35.027344 Z M 0.488281 0 " clip-rule="nonzero"/></clipPath><clipPath id="0dbd77526b"><path d="M 27 11 L 35.511719 11 L 35.511719 24 L 27 24 Z M 27 11 " clip-rule="nonzero"/></clipPath></defs><g clip-path="url(#8675f4d677)"><path fill="#424242" d="M 19.59375 35.027344 L 5.261719 35.027344 C 4.949219 35.027344 4.636719 34.996094 4.332031 34.933594 C 4.023438 34.875 3.726562 34.785156 3.433594 34.664062 C 3.144531 34.542969 2.871094 34.394531 2.609375 34.222656 C 2.347656 34.046875 2.105469 33.851562 1.886719 33.628906 C 1.664062 33.40625 1.464844 33.164062 1.292969 32.902344 C 1.117188 32.644531 0.96875 32.367188 0.851562 32.078125 C 0.730469 31.789062 0.640625 31.488281 0.578125 31.183594 C 0.515625 30.875 0.488281 30.5625 0.488281 30.25 L 0.488281 4.777344 C 0.488281 4.460938 0.515625 4.152344 0.578125 3.84375 C 0.640625 3.535156 0.730469 3.238281 0.851562 2.949219 C 0.96875 2.660156 1.117188 2.382812 1.292969 2.121094 C 1.464844 1.863281 1.664062 1.621094 1.886719 1.398438 C 2.105469 1.175781 2.347656 0.980469 2.609375 0.804688 C 2.871094 0.628906 3.144531 0.484375 3.433594 0.363281 C 3.726562 0.242188 4.023438 0.152344 4.332031 0.0898438 C 4.636719 0.03125 4.949219 0 5.261719 0 L 19.59375 0 C 19.90625 0 20.214844 0.03125 20.523438 0.0898438 C 20.832031 0.152344 21.128906 0.242188 21.421875 0.363281 C 21.710938 0.484375 21.984375 0.628906 22.246094 0.804688 C 22.507812 0.980469 22.746094 1.175781 22.96875 1.398438 C 23.191406 1.621094 23.390625 1.863281 23.5625 2.121094 C 23.738281 2.382812 23.886719 2.660156 24.003906 2.949219 C 24.125 3.238281 24.214844 3.535156 24.277344 3.84375 C 24.339844 4.152344 24.367188 4.460938 24.367188 4.777344 L 24.367188 10.347656 C 24.367188 10.558594 24.328125 10.761719 24.246094 10.957031 C 24.167969 11.152344 24.050781 11.324219 23.902344 11.476562 C 23.753906 11.625 23.582031 11.738281 23.386719 11.820312 C 23.191406 11.902344 22.988281 11.941406 22.777344 11.941406 C 22.566406 11.941406 22.363281 11.902344 22.167969 11.820312 C 21.972656 11.738281 21.800781 11.625 21.652344 11.476562 C 21.5 11.324219 21.386719 11.152344 21.304688 10.957031 C 21.226562 10.761719 21.183594 10.558594 21.183594 10.347656 L 21.183594 4.777344 C 21.183594 4.566406 21.144531 4.363281 21.0625 4.167969 C 20.980469 3.972656 20.867188 3.800781 20.71875 3.652344 C 20.570312 3.5 20.394531 3.386719 20.203125 3.304688 C 20.007812 3.226562 19.804688 3.183594 19.59375 3.183594 L 5.261719 3.183594 C 5.050781 3.183594 4.847656 3.226562 4.652344 3.304688 C 4.457031 3.386719 4.285156 3.5 4.136719 3.652344 C 3.988281 3.800781 3.871094 3.972656 3.792969 4.167969 C 3.710938 4.363281 3.671875 4.566406 3.671875 4.777344 L 3.671875 30.25 C 3.671875 30.460938 3.710938 30.664062 3.792969 30.859375 C 3.871094 31.054688 3.988281 31.226562 4.136719 31.375 C 4.285156 31.527344 4.457031 31.640625 4.652344 31.722656 C 4.847656 31.800781 5.050781 31.84375 5.261719 31.84375 L 19.59375 31.84375 C 19.804688 31.84375 20.007812 31.800781 20.203125 31.722656 C 20.394531 31.640625 20.570312 31.527344 20.71875 31.375 C 20.867188 31.226562 20.980469 31.054688 21.0625 30.859375 C 21.144531 30.664062 21.183594 30.460938 21.183594 30.25 L 21.183594 24.679688 C 21.183594 24.46875 21.226562 24.265625 21.304688 24.070312 C 21.386719 23.875 21.5 23.703125 21.652344 23.550781 C 21.800781 23.402344 21.972656 23.289062 22.167969 23.207031 C 22.363281 23.125 22.566406 23.085938 22.777344 23.085938 C 22.988281 23.085938 23.191406 23.125 23.386719 23.207031 C 23.582031 23.289062 23.753906 23.402344 23.902344 23.550781 C 24.050781 23.703125 24.167969 23.875 24.246094 24.070312 C 24.328125 24.265625 24.367188 24.46875 24.367188 24.679688 L 24.367188 30.25 C 24.367188 30.5625 24.339844 30.875 24.277344 31.183594 C 24.214844 31.488281 24.125 31.789062 24.003906 32.078125 C 23.886719 32.367188 23.738281 32.644531 23.5625 32.902344 C 23.390625 33.164062 23.191406 33.40625 22.96875 33.628906 C 22.746094 33.851562 22.507812 34.046875 22.246094 34.222656 C 21.984375 34.394531 21.710938 34.542969 21.421875 34.664062 C 21.128906 34.785156 20.832031 34.875 20.523438 34.933594 C 20.214844 34.996094 19.90625 35.027344 19.59375 35.027344 Z M 19.59375 35.027344 " fill-opacity="1" fill-rule="nonzero"/></g><path fill="#424242" d="M 33.125 19.105469 L 12.285156 19.105469 C 12.074219 19.105469 11.871094 19.066406 11.675781 18.984375 C 11.480469 18.902344 11.308594 18.789062 11.160156 18.640625 C 11.007812 18.488281 10.894531 18.316406 10.8125 18.121094 C 10.734375 17.925781 10.691406 17.726562 10.691406 17.511719 C 10.691406 17.300781 10.734375 17.097656 10.8125 16.902344 C 10.894531 16.710938 11.007812 16.535156 11.160156 16.386719 C 11.308594 16.238281 11.480469 16.125 11.675781 16.042969 C 11.871094 15.960938 12.074219 15.921875 12.285156 15.921875 L 33.125 15.921875 C 33.335938 15.921875 33.539062 15.960938 33.734375 16.042969 C 33.929688 16.125 34.101562 16.238281 34.25 16.386719 C 34.402344 16.535156 34.515625 16.710938 34.597656 16.902344 C 34.675781 17.097656 34.71875 17.300781 34.71875 17.511719 C 34.71875 17.726562 34.675781 17.925781 34.597656 18.121094 C 34.515625 18.316406 34.402344 18.488281 34.25 18.640625 C 34.101562 18.789062 33.929688 18.902344 33.734375 18.984375 C 33.539062 19.066406 33.335938 19.105469 33.125 19.105469 Z M 33.125 19.105469 " fill-opacity="1" fill-rule="nonzero"/><g clip-path="url(#0dbd77526b)"><path fill="#424242" d="M 29.144531 23.882812 C 28.824219 23.878906 28.53125 23.789062 28.265625 23.613281 C 27.996094 23.433594 27.804688 23.195312 27.679688 22.898438 C 27.558594 22.601562 27.527344 22.296875 27.589844 21.980469 C 27.652344 21.667969 27.796875 21.394531 28.023438 21.167969 L 31.667969 17.511719 L 28.015625 13.859375 C 27.863281 13.710938 27.75 13.539062 27.667969 13.34375 C 27.589844 13.148438 27.546875 12.945312 27.546875 12.734375 C 27.546875 12.523438 27.589844 12.320312 27.667969 12.125 C 27.75 11.929688 27.863281 11.757812 28.015625 11.605469 C 28.164062 11.457031 28.335938 11.34375 28.53125 11.261719 C 28.726562 11.179688 28.929688 11.140625 29.140625 11.140625 C 29.351562 11.140625 29.554688 11.179688 29.75 11.261719 C 29.945312 11.34375 30.117188 11.457031 30.265625 11.605469 L 35.042969 16.382812 C 35.191406 16.53125 35.308594 16.703125 35.390625 16.898438 C 35.46875 17.09375 35.511719 17.296875 35.511719 17.507812 C 35.511719 17.722656 35.46875 17.925781 35.390625 18.121094 C 35.308594 18.3125 35.191406 18.488281 35.042969 18.636719 L 30.265625 23.414062 C 29.957031 23.722656 29.582031 23.878906 29.144531 23.882812 Z M 29.144531 23.882812 " fill-opacity="1" fill-rule="nonzero"/></g></svg>