<svg xmlns="http://www.w3.org/2000/svg" xmlns:xlink="http://www.w3.org/1999/xlink" width="48" zoomAndPan="magnify" viewBox="0 0 36 36.000001" height="48" preserveAspectRatio="xMidYMid meet" version="1.0"><defs><clipPath id="4892013548"><path d="M 0.777344 12.257812 L 11.285156 12.257812 L 11.285156 22.765625 L 0.777344 22.765625 Z M 0.777344 12.257812 " clip-rule="nonzero"/></clipPath><clipPath id="831b7eb6ee"><path d="M 6.03125 12.257812 C 3.128906 12.257812 0.777344 14.613281 0.777344 17.511719 C 0.777344 20.414062 3.128906 22.765625 6.03125 22.765625 C 8.933594 22.765625 11.285156 20.414062 11.285156 17.511719 C 11.285156 14.613281 8.933594 12.257812 6.03125 12.257812 Z M 6.03125 12.257812 " clip-rule="nonzero"/></clipPath><clipPath id="59c1d9fe86"><path d="M 12.746094 12.257812 L 23.253906 12.257812 L 23.253906 22.765625 L 12.746094 22.765625 Z M 12.746094 12.257812 " clip-rule="nonzero"/></clipPath><clipPath id="04d5e0caff"><path d="M 18 12.257812 C 15.097656 12.257812 12.746094 14.613281 12.746094 17.511719 C 12.746094 20.414062 15.097656 22.765625 18 22.765625 C 20.902344 22.765625 23.253906 20.414062 23.253906 17.511719 C 23.253906 14.613281 20.902344 12.257812 18 12.257812 Z M 18 12.257812 " clip-rule="nonzero"/></clipPath><clipPath id="ea3a25d97a"><path d="M 24.714844 12.257812 L 35.222656 12.257812 L 35.222656 22.765625 L 24.714844 22.765625 Z M 24.714844 12.257812 " clip-rule="nonzero"/></clipPath><clipPath id="62b9ef5f9e"><path d="M 29.96875 12.257812 C 27.066406 12.257812 24.714844 14.613281 24.714844 17.511719 C 24.714844 20.414062 27.066406 22.765625 29.96875 22.765625 C 32.871094 22.765625 35.222656 20.414062 35.222656 17.511719 C 35.222656 14.613281 32.871094 12.257812 29.96875 12.257812 Z M 29.96875 12.257812 " clip-rule="nonzero"/></clipPath></defs><g clip-path="url(#4892013548)"><g clip-path="url(#831b7eb6ee)"><path fill="#f23a30" d="M 0.777344 12.257812 L 11.285156 12.257812 L 11.285156 22.765625 L 0.777344 22.765625 Z M 0.777344 12.257812 " fill-opacity="1" fill-rule="nonzero"/></g></g><g clip-path="url(#59c1d9fe86)"><g clip-path="url(#04d5e0caff)"><path fill="#4b9960" d="M 12.746094 12.257812 L 23.253906 12.257812 L 23.253906 22.765625 L 12.746094 22.765625 Z M 12.746094 12.257812 " fill-opacity="1" fill-rule="nonzero"/></g></g><g clip-path="url(#ea3a25d97a)"><g clip-path="url(#62b9ef5f9e)"><path fill="#f2d378" d="M 24.714844 12.257812 L 35.222656 12.257812 L 35.222656 22.765625 L 24.714844 22.765625 Z M 24.714844 12.257812 " fill-opacity="1" fill-rule="nonzero"/></g></g></svg>