<svg xmlns="http://www.w3.org/2000/svg" xmlns:xlink="http://www.w3.org/1999/xlink" width="500" zoomAndPan="magnify" viewBox="0 0 375 374.999991" height="500" preserveAspectRatio="xMidYMid meet" version="1.0"><defs><clipPath id="75009a8261"><path d="M 29.398438 64 L 345.898438 64 L 345.898438 271 L 29.398438 271 Z M 29.398438 64 " clip-rule="nonzero"/></clipPath><clipPath id="673eaf736d"><path d="M 29.398438 281 L 345.898438 281 L 345.898438 310.734375 L 29.398438 310.734375 Z M 29.398438 281 " clip-rule="nonzero"/></clipPath></defs><g clip-path="url(#75009a8261)"><path fill="#000000" d="M 44.683594 251.3125 L 163 251.3125 L 163 261.152344 L 140.816406 261.152344 C 138.105469 261.152344 135.886719 263.367188 135.886719 266.070312 C 135.886719 268.777344 138.105469 270.992188 140.816406 270.992188 L 234.484375 270.992188 C 237.195312 270.992188 239.414062 268.777344 239.414062 266.070312 C 239.414062 263.367188 237.195312 261.152344 234.484375 261.152344 L 212.300781 261.152344 L 212.300781 251.3125 L 330.617188 251.3125 C 338.75 251.3125 345.40625 244.917969 345.40625 236.800781 L 345.40625 78.882812 C 345.40625 71.011719 338.75 64.371094 330.617188 64.371094 L 44.683594 64.371094 C 36.546875 64.371094 29.894531 70.765625 29.894531 78.882812 L 29.894531 236.800781 C 29.894531 244.917969 36.546875 251.3125 44.683594 251.3125 Z M 202.441406 251.3125 L 202.441406 261.152344 L 172.859375 261.152344 L 172.859375 251.3125 Z M 330.617188 241.472656 L 44.683594 241.472656 C 41.972656 241.472656 39.753906 239.261719 39.753906 236.800781 L 39.753906 231.636719 L 335.546875 231.636719 L 335.546875 236.800781 C 335.546875 239.507812 333.328125 241.472656 330.617188 241.472656 Z M 44.683594 74.210938 L 330.617188 74.210938 C 333.328125 74.210938 335.546875 76.175781 335.546875 78.882812 L 335.546875 221.796875 L 39.753906 221.796875 L 39.753906 78.882812 C 39.753906 76.175781 41.972656 74.210938 44.683594 74.210938 Z M 44.683594 74.210938 " fill-opacity="1" fill-rule="nonzero"/></g><g clip-path="url(#673eaf736d)"><path fill="#000000" d="M 343.433594 298.542969 C 342.941406 298.050781 342.449219 297.804688 341.957031 297.558594 L 311.636719 282.550781 C 310.40625 281.570312 308.679688 281.078125 306.953125 281.078125 L 68.347656 281.078125 C 66.621094 281.078125 64.894531 281.570312 63.664062 282.550781 L 33.34375 297.558594 C 32.851562 297.804688 32.359375 298.050781 31.863281 298.542969 C 29.894531 300.507812 29.398438 303.460938 30.386719 305.921875 C 31.617188 308.625 34.328125 310.347656 37.289062 310.347656 L 338.011719 310.347656 C 340.96875 310.347656 343.679688 308.625 344.914062 305.921875 C 345.898438 303.460938 345.40625 300.507812 343.433594 298.542969 Z M 49.121094 300.507812 L 68.347656 290.914062 C 68.59375 290.914062 68.59375 290.671875 68.839844 290.671875 L 305.96875 290.671875 C 306.214844 290.671875 306.214844 290.914062 306.460938 290.914062 L 325.6875 300.507812 Z M 49.121094 300.507812 " fill-opacity="1" fill-rule="nonzero"/></g></svg>