<svg xmlns="http://www.w3.org/2000/svg" xmlns:xlink="http://www.w3.org/1999/xlink" width="48" zoomAndPan="magnify" viewBox="0 0 36 36.000001" height="48" preserveAspectRatio="xMidYMid meet" version="1.0"><defs><clipPath id="ebd53167f0"><path d="M 0.488281 0 L 35.511719 0 L 35.511719 35.027344 L 0.488281 35.027344 Z M 0.488281 0 " clip-rule="nonzero"/></clipPath></defs><g clip-path="url(#ebd53167f0)"><path fill="#eff0f2" d="M 17.996094 0 C 8.324219 0 0.484375 7.839844 0.484375 17.511719 C 0.484375 27.183594 8.324219 35.023438 17.996094 35.023438 C 27.667969 35.023438 35.507812 27.183594 35.507812 17.511719 C 35.507812 7.839844 27.667969 0 17.996094 0 Z M 17.996094 4.902344 C 21.480469 4.902344 24.300781 7.722656 24.300781 11.207031 C 24.300781 14.6875 21.480469 17.511719 17.996094 17.511719 C 14.515625 17.511719 11.691406 14.6875 11.691406 11.207031 C 11.691406 7.726562 14.515625 4.902344 17.996094 4.902344 Z M 17.996094 30.820312 C 13.519531 30.820312 9.570312 28.605469 7.160156 25.21875 C 9.570312 21.828125 13.519531 19.613281 17.996094 19.613281 C 22.472656 19.613281 26.421875 21.828125 28.835938 25.21875 C 26.421875 28.605469 22.472656 30.820312 17.996094 30.820312 Z M 17.996094 30.820312 " fill-opacity="1" fill-rule="nonzero"/></g></svg>