<svg xmlns="http://www.w3.org/2000/svg" xmlns:xlink="http://www.w3.org/1999/xlink" width="500" zoomAndPan="magnify" viewBox="0 0 375 374.999991" height="500" preserveAspectRatio="xMidYMid meet" version="1.0"><defs><clipPath id="2def276786"><path d="M 187.5 0 C 83.945312 0 0 83.945312 0 187.5 C 0 291.054688 83.945312 375 187.5 375 C 291.054688 375 375 291.054688 375 187.5 C 375 83.945312 291.054688 0 187.5 0 Z M 187.5 0 " clip-rule="nonzero"/></clipPath><clipPath id="263490e40d"><path d="M 62 46 L 319 46 L 319 321 L 62 321 Z M 62 46 " clip-rule="nonzero"/></clipPath><clipPath id="3ec21e3deb"><path d="M 42.238281 57.769531 L 305.898438 26.585938 L 339.199219 308.125 L 75.539062 339.308594 Z M 42.238281 57.769531 " clip-rule="nonzero"/></clipPath><clipPath id="e8949def66"><path d="M 42.238281 57.769531 L 305.898438 26.585938 L 339.199219 308.125 L 75.539062 339.308594 Z M 42.238281 57.769531 " clip-rule="nonzero"/></clipPath></defs><g clip-path="url(#2def276786)"><rect x="-37.5" width="450" fill="#f23a30" y="-37.499999" height="449.999989" fill-opacity="1"/></g><g clip-path="url(#263490e40d)"><g clip-path="url(#3ec21e3deb)"><g clip-path="url(#e8949def66)"><path fill="#ffffff" d="M 142.0625 55.070312 C 176.613281 41.902344 213.289062 43.65625 244.882812 57.234375 C 277.089844 71.074219 304.019531 97.199219 318.035156 132.335938 C 318.339844 133.109375 318.640625 133.886719 318.9375 134.664062 L 316.941406 135.636719 C 316.628906 134.808594 316.3125 133.980469 315.980469 133.152344 C 302.195312 98.582031 275.699219 72.875 244.011719 59.257812 C 212.488281 45.710938 175.828125 44.132812 141.417969 57.6875 C 141.652344 56.820312 141.867188 55.945312 142.0625 55.070312 Z M 64.832031 230.980469 C 65.089844 231.65625 65.351562 232.332031 65.621094 233.011719 C 79.410156 267.578125 105.902344 293.285156 137.589844 306.90625 C 169.261719 320.515625 206.121094 322.046875 240.675781 308.28125 C 240.429688 309.152344 240.207031 310.03125 240 310.917969 C 205.316406 324.273438 168.453125 322.566406 136.71875 308.929688 C 104.511719 295.089844 77.582031 268.960938 63.570312 233.828125 C 63.324219 233.203125 63.078125 232.578125 62.839844 231.953125 Z M 64.832031 230.980469 " fill-opacity="1" fill-rule="evenodd"/></g></g></g><path fill="#ffffff" d="M 123.171875 190.171875 L 123.171875 159.394531 C 123.171875 158.289062 122.589844 157.71875 121.441406 157.71875 L 108.4375 157.71875 C 107.511719 157.71875 106.722656 157.40625 106.050781 156.761719 C 105.410156 156.089844 105.097656 155.253906 105.097656 154.253906 C 105.097656 153.34375 105.410156 152.566406 106.050781 151.921875 C 106.722656 151.25 107.511719 150.90625 108.4375 150.90625 L 123.949219 150.90625 C 125.886719 150.90625 127.4375 151.5625 128.601562 152.878906 C 129.75 154.164062 130.332031 155.792969 130.332031 157.78125 L 130.332031 211.269531 C 130.332031 213.183594 129.75 214.796875 128.601562 216.109375 C 127.4375 217.457031 125.886719 218.144531 123.949219 218.144531 L 72.167969 218.144531 C 68.734375 218.144531 65.976562 217.082031 63.875 214.976562 C 61.800781 212.867188 60.773438 210.121094 60.773438 206.726562 L 60.773438 197.046875 C 60.773438 195.058594 61.324219 193.429688 62.441406 192.144531 C 63.589844 190.828125 65.15625 190.171875 67.15625 190.171875 Z M 59.699219 150.90625 L 92.03125 150.90625 C 95.015625 150.90625 97.402344 151.773438 99.191406 153.476562 C 100.980469 155.195312 101.875 157.464844 101.875 160.289062 C 101.875 162.441406 101.292969 164.457031 100.144531 166.324219 C 99.027344 168.207031 97.296875 169.71875 94.953125 170.867188 L 59.636719 188.796875 C 58.832031 189.246094 57.96875 189.304688 57.011719 188.976562 C 56.089844 188.617188 55.460938 188.019531 55.105469 187.183594 C 54.65625 186.347656 54.597656 185.496094 54.925781 184.613281 C 55.285156 183.703125 55.851562 183.03125 56.65625 182.582031 L 81.414062 170.332031 C 79.382812 170.570312 77.355469 170.75 75.328125 170.867188 C 73.328125 170.957031 71.570312 170.988281 70.019531 170.988281 L 58.804688 170.988281 C 57.804688 170.988281 56.984375 170.6875 56.355469 170.089844 C 55.761719 169.464844 55.460938 168.65625 55.460938 167.699219 C 55.460938 166.789062 55.761719 166.058594 56.355469 165.488281 C 56.984375 164.890625 57.804688 164.59375 58.804688 164.59375 L 92.6875 164.59375 C 93.910156 163.515625 94.535156 162.261719 94.535156 160.828125 C 94.535156 159.917969 94.195312 159.152344 93.523438 158.554688 C 92.835938 157.929688 91.867188 157.601562 90.601562 157.601562 L 59.699219 157.601562 C 58.773438 157.601562 57.996094 157.273438 57.371094 156.585938 C 56.730469 155.910156 56.417969 155.136719 56.417969 154.253906 C 56.417969 153.265625 56.730469 152.460938 57.371094 151.863281 C 57.996094 151.234375 58.773438 150.90625 59.699219 150.90625 Z M 73.179688 211.328125 L 121.441406 211.328125 C 122.589844 211.328125 123.171875 210.777344 123.171875 209.65625 L 123.171875 196.984375 L 69.660156 196.984375 C 68.46875 196.984375 67.871094 197.523438 67.871094 198.597656 L 67.871094 206.308594 C 67.871094 207.863281 68.363281 209.101562 69.363281 210.015625 C 70.347656 210.894531 71.628906 211.328125 73.179688 211.328125 Z M 73.179688 211.328125 " fill-opacity="1" fill-rule="nonzero"/><path fill="#ffffff" d="M 179.140625 154.253906 L 199.246094 154.253906 C 200.199219 154.253906 201.007812 154.597656 201.691406 155.269531 C 202.363281 155.957031 202.707031 156.761719 202.707031 157.71875 C 202.707031 158.554688 202.363281 159.320312 201.691406 159.992188 C 201.007812 160.679688 200.199219 161.007812 199.246094 161.007812 L 191.492188 161.007812 C 194.621094 163.757812 197.113281 167.3125 198.949219 171.644531 C 200.765625 175.949219 201.691406 180.835938 201.691406 186.289062 C 201.691406 192.472656 200.527344 197.972656 198.230469 202.78125 C 195.964844 207.5625 192.820312 211.328125 188.804688 214.078125 C 184.824219 216.78125 180.351562 218.144531 175.382812 218.144531 C 170.371094 218.144531 165.867188 216.78125 161.902344 214.078125 C 157.964844 211.328125 154.832031 207.5625 152.535156 202.78125 C 150.222656 197.972656 149.074219 192.472656 149.074219 186.289062 C 149.074219 180.835938 149.96875 175.949219 151.761719 171.644531 C 153.578125 167.3125 156.054688 163.757812 159.15625 161.007812 L 150.925781 161.007812 C 150.046875 161.007812 149.269531 160.679688 148.597656 159.992188 C 147.914062 159.320312 147.585938 158.554688 147.585938 157.71875 C 147.585938 156.761719 147.914062 155.957031 148.597656 155.269531 C 149.269531 154.597656 150.046875 154.253906 150.925781 154.253906 L 171.863281 154.253906 L 171.863281 146.902344 C 171.863281 145.992188 172.222656 145.199219 172.9375 144.511719 C 173.683594 143.839844 174.519531 143.496094 175.445312 143.496094 C 176.429688 143.496094 177.292969 143.839844 178.007812 144.511719 C 178.753906 145.199219 179.140625 145.992188 179.140625 146.902344 Z M 156.175781 186.289062 C 156.175781 191.308594 157.023438 195.714844 158.738281 199.496094 C 160.484375 203.246094 162.8125 206.175781 165.71875 208.28125 C 168.613281 210.402344 171.835938 211.449219 175.382812 211.449219 C 178.964844 211.449219 182.183594 210.402344 185.046875 208.28125 C 187.910156 206.175781 190.195312 203.246094 191.910156 199.496094 C 193.652344 195.714844 194.535156 191.308594 194.535156 186.289062 C 194.535156 181.265625 193.652344 176.890625 191.910156 173.140625 C 190.195312 169.359375 187.910156 166.429688 185.046875 164.355469 C 182.183594 162.292969 178.964844 161.246094 175.382812 161.246094 C 171.835938 161.246094 168.613281 162.292969 165.71875 164.355469 C 162.8125 166.429688 160.484375 169.359375 158.738281 173.140625 C 157.023438 176.890625 156.175781 181.265625 156.175781 186.289062 Z M 223.882812 152.9375 L 223.882812 214.316406 C 223.882812 215.246094 223.527344 216.007812 222.808594 216.648438 C 222.125 217.320312 221.320312 217.664062 220.363281 217.664062 C 219.441406 217.664062 218.605469 217.320312 217.859375 216.648438 C 217.144531 216.007812 216.785156 215.246094 216.785156 214.316406 L 216.785156 152.9375 C 216.785156 152.027344 217.113281 151.234375 217.800781 150.546875 C 218.515625 149.875 219.351562 149.53125 220.304688 149.53125 C 221.289062 149.53125 222.125 149.875 222.808594 150.546875 C 223.527344 151.234375 223.882812 152.027344 223.882812 152.9375 Z M 223.882812 152.9375 " fill-opacity="1" fill-rule="nonzero"/><path fill="#ffffff" d="M 267.207031 181.386719 C 258.648438 181.386719 252.011719 180.011719 247.28125 177.261719 C 242.585938 174.484375 240.242188 170.734375 240.242188 166.027344 C 240.242188 162.769531 241.273438 160.019531 243.34375 157.78125 C 245.402344 155.507812 248.027344 153.804688 251.21875 152.640625 C 254.441406 151.488281 257.753906 150.90625 261.183594 150.90625 C 262.40625 150.90625 263.328125 151.234375 263.925781 151.863281 C 264.554688 152.460938 264.882812 153.296875 264.882812 154.371094 C 264.882812 155.058594 264.640625 155.71875 264.164062 156.34375 C 263.6875 156.988281 262.988281 157.347656 262.078125 157.421875 C 257.574219 157.75 254.023438 158.707031 251.398438 160.289062 C 248.804688 161.886719 247.519531 163.800781 247.519531 166.027344 C 247.519531 168.65625 249.25 170.777344 252.710938 172.363281 C 256.171875 173.960938 261.003906 174.753906 267.207031 174.753906 C 273.367188 174.753906 278.183594 173.960938 281.644531 172.363281 C 285.105469 170.777344 286.835938 168.65625 286.835938 166.027344 C 286.835938 163.800781 285.523438 161.886719 282.898438 160.289062 C 280.300781 158.707031 276.765625 157.75 272.277344 157.421875 C 271.355469 157.347656 270.667969 156.988281 270.191406 156.34375 C 269.714844 155.71875 269.476562 155.058594 269.476562 154.371094 C 269.476562 153.296875 269.773438 152.460938 270.371094 151.863281 C 270.996094 151.234375 271.949219 150.90625 273.234375 150.90625 L 310.160156 150.90625 C 312.144531 150.90625 313.695312 151.5625 314.8125 152.878906 C 315.960938 154.164062 316.542969 155.792969 316.542969 157.78125 L 316.542969 198.71875 C 316.542969 200.632812 315.960938 202.273438 314.8125 203.621094 C 313.695312 204.933594 312.144531 205.59375 310.160156 205.59375 L 254.023438 205.59375 C 252.859375 205.59375 252.292969 206.160156 252.292969 207.265625 L 252.292969 209.238281 C 252.292969 210.402344 252.5625 211.238281 253.128906 211.746094 C 253.679688 212.269531 254.636719 212.523438 255.992188 212.523438 L 314.277344 212.523438 C 315.230469 212.523438 316.019531 212.855469 316.664062 213.480469 C 317.332031 214.078125 317.675781 214.886719 317.675781 215.871094 C 317.675781 216.738281 317.332031 217.484375 316.664062 218.082031 C 316.019531 218.710938 315.230469 219.039062 314.277344 219.039062 L 255.394531 219.039062 C 252.25 219.039062 249.742188 218.320312 247.878906 216.886719 C 246.042969 215.484375 245.136719 213.363281 245.136719 210.492188 L 245.136719 205.949219 C 245.136719 203.964844 245.6875 202.351562 246.804688 201.109375 C 247.953125 199.882812 249.519531 199.257812 251.519531 199.257812 L 307.652344 199.257812 C 308.847656 199.257812 309.445312 198.703125 309.445312 197.582031 L 309.445312 192.683594 L 248.773438 192.683594 C 247.820312 192.683594 247.015625 192.382812 246.386719 191.785156 C 245.746094 191.160156 245.433594 190.335938 245.433594 189.335938 C 245.433594 188.46875 245.746094 187.722656 246.386719 187.125 C 247.015625 186.496094 247.820312 186.167969 248.773438 186.167969 L 309.445312 186.167969 L 309.445312 159.273438 C 309.445312 158.167969 308.847656 157.601562 307.652344 157.601562 L 289.996094 157.601562 C 291.21875 158.796875 292.21875 160.09375 292.980469 161.484375 C 293.769531 162.84375 294.171875 164.355469 294.171875 166.027344 C 294.171875 170.734375 291.800781 174.484375 287.074219 177.261719 C 282.332031 180.011719 275.707031 181.386719 267.207031 181.386719 Z M 267.207031 181.386719 " fill-opacity="1" fill-rule="nonzero"/></svg>